<svg height="100" viewBox="0 0 100 100" width="100" xmlns="http://www.w3.org/2000/svg"><path d="m42.15625 46.59375c-5.855064 0-10.8317937-2.0492417-14.9303385-6.1477865s-6.1477865-9.0752745-6.1477865-14.9303385 2.0492417-10.8317937 6.1477865-14.9303385c4.0985448-4.09854484 9.0752745-6.1477865 14.9303385-6.1477865s10.8317937 2.04924166 14.9303385 6.1477865c4.0985448 4.0985448 6.1477865 9.0752745 6.1477865 14.9303385s-2.0492417 10.8317937-6.1477865 14.9303385-9.0752745 6.1477865-14.9303385 6.1477865zm0 10.5390625c8.782596 0 18.0041835 1.9394609 27.6650391 5.8184408s14.4912109 8.9654904 14.4912109 15.2596842v10.5390625h-84.3125v-10.5390625c0-6.2941938 4.83035534-11.3807043 14.4912109-15.2596842 9.6608556-3.8789799 18.8824431-5.8184408 27.6650391-5.8184408z" fill="#1f1f1f" fill-rule="evenodd" transform="translate(8.583 2.667)"/></svg>