<svg xmlns="http://www.w3.org/2000/svg" width="59" height="59" viewBox="0 0 59 59">
  <g transform="translate(12 6)">
    <path d="m7 18.3s2.5 4 2.8 5.6l1.1-1.4.5 1.8.3-.3c1.5 2.4 3.8 3.9 6.3 3.9 2.6 0 4.9-1.5 6.3-3.9l.3.4.5-1.8 1.1 1.4c.3-1.7 2.8-5.6 2.8-5.6l-.2 2.6c2.2-2.4 1.4-5.5.3-7.6-.8-1.6-1.3-3.3-1.8-5.1-.5-2-1.4-3.9-1.4-3.9-3.4-7.3-7.9-3.3-7.9-3.3s-4.5-4-8.1 3.4c0 0-.9 1.9-1.4 3.9-.4 1.7-1 3.5-1.8 5.1-1 2.1-1.9 5.2.3 7.6zm11 7.6c-3 0-5.5-2.8-6-6.7-.1-.7 0-1.3.3-1.9.6-1.3 1.5-3.3 1.8-5.7.1-.6.4-1.2.9-1.6 0 0 2.4-2 4.1-1.8.7.1 3.4.4 3.5 2.8l.1.4c.9 1.6 1.3 3.7 1.4 6.4 0 4.5-2.8 8.1-6.1 8.1z"/>
    <g transform="translate(0 28)">
      <path d="M18 1.7c-1.8 0-3.5-.6-5-1.6h-1.1l2.3 7.7h7.5l2.3-7.7h-1.2c-1.4 1-3 1.6-4.8 1.6zM.4 14.3c1.7 1.3 3.6 2.3 5.6 3.2v-6.5h-5.6z"/>
      <path d="m27.9.1h-1.8l-2.9 9.6h-10.4l-2.9-9.6h-1.8c-4.3 0-7.7 3.4-7.7 7.7v1.3h7.5v9.1c3.2 1.2 6.6 1.8 10.1 1.8s6.9-.6 10.1-1.8v-9.1h7.5v-1.3c0-4.2-3.5-7.7-7.7-7.7z"/>
      <path d="m30 17.5c2-.9 3.9-2 5.6-3.2v-3.3h-5.6z"/>
    </g>
  </g>
</svg>
