<?xml version="1.0" encoding="utf-8"?>
<!-- Generator: Adobe Illustrator 19.0.0, SVG Export Plug-In . SVG Version: 6.00 Build 0)  -->
<svg version="1.1" id="Layer_1" xmlns="http://www.w3.org/2000/svg" xmlns:xlink="http://www.w3.org/1999/xlink" x="0px" y="0px"
	 viewBox="202 -80.1 1000 1000" style="enable-background:new 202 -80.1 1000 1000;" xml:space="preserve">
<style type="text/css">
	.st0{fill:#FFFFFF;}
	.st1{opacity:5.000000e-002;fill:#FFFFFF;enable-background:new    ;}
	.st2{opacity:0.15;fill:#FFFFFF;enable-background:new    ;}
	.st3{opacity:0.3;fill:#FFFFFF;enable-background:new    ;}
</style>
<g>
	<g>
		<path class="st0" d="M693.5,356.8c-10.3,0-20.5-6.4-20.5-23.6s10.2-23.5,20.5-23.5c6.3,0,10.8,1.8,15.1,6.4l-6.3,6.2
			c-2.9-3.2-5.2-4.4-8.8-4.4c-3.5,0-6.5,1.5-8.5,4.1c-2,2.5-2.7,5.8-2.7,11.2c0,5.4,0.7,8.7,2.7,11.2c2,2.6,5,4.1,8.5,4.1
			c3.6,0,5.9-1.2,8.8-4.4l6.3,6.1C704.3,354.9,699.9,356.8,693.5,356.8z"/>
		<path class="st0" d="M747.5,351.4c-3,3.1-7.5,5.4-13.8,5.4c-6.3,0-10.7-2.4-13.7-5.4c-4.4-4.5-5.4-10.3-5.4-18.1
			c0-7.7,1.1-13.5,5.4-18c3-3.1,7.4-5.4,13.7-5.4c6.3,0,10.8,2.4,13.8,5.4c4.4,4.5,5.4,10.3,5.4,18S751.8,346.8,747.5,351.4z
			 M740.5,320.6c-1.7-1.7-4.1-2.6-6.8-2.6c-2.7,0-5,0.9-6.7,2.6c-2.8,2.8-3.2,7.6-3.2,12.6s0.4,9.8,3.2,12.6c1.7,1.7,4,2.7,6.7,2.7
			c2.7,0,5.1-1,6.8-2.7c2.8-2.8,3.2-7.6,3.2-12.6S743.3,323.4,740.5,320.6z"/>
		<path class="st0" d="M789.7,356.3v-4.9c-3.4,4.2-7.2,5.4-12.2,5.4c-4.6,0-8.7-1.5-11.2-4.1c-4.6-4.6-5.2-12.5-5.2-19.5
			s0.5-14.8,5.2-19.4c2.5-2.5,6.5-4.1,11.2-4.1c4.9,0,8.7,1.2,12.1,5.2v-23.2h9.2v64.6H789.7L789.7,356.3z M780,318
			c-8.3,0-9.6,7.1-9.6,15.2c0,8.2,1.3,15.3,9.6,15.3c8.3,0,9.5-7.2,9.5-15.3C789.6,325.1,788.4,318,780,318z"/>
		<path class="st0" d="M816.2,336c0,7.9,4.2,12.9,11.7,12.9c5.2,0,7.9-1.5,11.2-4.7l5.9,5.5c-4.7,4.7-9.2,7.2-17.2,7.2
			c-11.5,0-20.7-6.1-20.7-23.6c0-14.9,7.7-23.5,19.5-23.5c12.3,0,19.5,9.1,19.5,22.1v4.1H816.2L816.2,336z M835.6,323.3
			c-1.5-3.4-4.7-5.8-9.1-5.8c-4.4,0-7.7,2.4-9.2,5.8c-0.9,2.1-1.1,3.4-1.2,6.3h20.7C836.8,326.7,836.5,325.3,835.6,323.3z"/>
	</g>
	<g>
		<path class="st0" d="M886.9,318.4v38.1h-9.3v-38.1h-5.3v-7.1h5.3v-7.1c0-6.6,4-12.8,12.6-12.8h5.8v7.9h-4.1c-3.4,0-5.1,2-5.1,5.4
			v6.6h9.2v7.1H886.9L886.9,318.4z"/>
		<path class="st0" d="M932.8,351.6c-3,3.1-7.5,5.4-13.8,5.4c-6.3,0-10.7-2.4-13.7-5.4c-4.4-4.5-5.4-10.3-5.4-18.1
			c0-7.7,1.1-13.5,5.4-18c3-3.1,7.4-5.4,13.7-5.4c6.3,0,10.8,2.4,13.8,5.4c4.4,4.5,5.4,10.3,5.4,18
			C938.2,341.2,937.1,347,932.8,351.6z M925.8,320.8c-1.7-1.7-4.1-2.6-6.8-2.6c-2.7,0-5,0.9-6.7,2.6c-2.8,2.8-3.2,7.6-3.2,12.6
			s0.4,9.8,3.2,12.6c1.7,1.7,4,2.7,6.7,2.7c2.7,0,5.1-1,6.8-2.7c2.8-2.8,3.2-7.6,3.2-12.6S928.6,323.6,925.8,320.8z"/>
		<path class="st0" d="M970.9,321.3c-2.1-2.1-3.7-3.1-6.9-3.1c-5,0-9.2,4-9.2,10.3v27.9h-9.2v-46h9.1v5c2.4-3.3,7.1-5.5,12.2-5.5
			c4.4,0,7.8,1.2,11,4.4L970.9,321.3z"/>
	</g>
	<g>
		<path class="st0" d="M709.6,437.2L696,410h-12.2v27.2H674v-64.6h25c12.2,0,20,7.9,20,18.9c0,9.2-5.6,15.1-12.9,17.1l14.9,28.6
			H709.6z M698.2,381.5h-14.5v20.2h14.5c6.5,0,11-3.7,11-10.1S704.8,381.5,698.2,381.5z"/>
		<path class="st0" d="M759.8,432.3c-3,3.1-7.5,5.4-13.8,5.4c-6.3,0-10.7-2.4-13.7-5.4c-4.4-4.5-5.4-10.3-5.4-18.1
			c0-7.7,1.1-13.5,5.4-18c3-3.1,7.4-5.4,13.7-5.4c6.3,0,10.8,2.4,13.8,5.4c4.4,4.5,5.4,10.3,5.4,18
			C765.3,422,764.2,427.8,759.8,432.3z M752.8,401.6c-1.7-1.7-4.1-2.6-6.8-2.6c-2.7,0-5,0.9-6.7,2.6c-2.8,2.8-3.2,7.6-3.2,12.6
			s0.4,9.8,3.2,12.6c1.7,1.7,4,2.7,6.7,2.7c2.7,0,5.1-1,6.8-2.7c2.8-2.8,3.2-7.6,3.2-12.6S755.6,404.4,752.8,401.6z"/>
		<path class="st0" d="M830.6,437.2v-28c0-7.2-4.1-10.2-9.3-10.2c-5,0-9.5,3.2-9.5,9.8v28.5h-9.3v-28c0-7.2-4.1-10.2-9.2-10.2
			c-5.1,0-9.5,3.2-9.5,10.2v28h-9.3v-46h9.1v4.6c3.1-3.4,7.6-5.2,12.2-5.2c5.7,0,10.2,2.3,13.1,6.7c3.7-4.5,8.3-6.7,14.4-6.7
			c4.7,0,8.9,1.5,11.6,4.2c3.5,3.4,4.9,7.8,4.9,13v29.4L830.6,437.2L830.6,437.2z"/>
		<path class="st0" d="M877.7,437.2V433c-3.4,3.4-6.5,4.7-12.2,4.7c-5.7,0-9.5-1.4-12.3-4.2c-2.4-2.4-3.6-6-3.6-9.9
			c0-7.7,5.4-13.2,15.9-13.2h12v-3.3c0-5.8-2.9-8.6-10.1-8.6c-5.1,0-7.5,1.2-10.1,4.4l-6.1-5.7c4.4-5.1,8.9-6.6,16.5-6.6
			c12.6,0,19,5.4,19,15.8v30.7L877.7,437.2L877.7,437.2z M877.5,416.9h-10.8c-5.4,0-8.3,2.4-8.3,6.6s2.6,6.5,8.4,6.5
			c3.5,0,6.2-0.3,8.6-2.6c1.4-1.4,2-3.5,2-6.8L877.5,416.9L877.5,416.9z"/>
		<path class="st0" d="M925.9,437.2v-28c0-7.2-4.1-10.2-9.2-10.2c-5.1,0-9.5,3.2-9.5,10.2v28h-9.3v-46h9.1v4.6
			c3.2-3.4,7.6-5.2,12.2-5.2c4.7,0,8.6,1.5,11.3,4.2c3.5,3.4,4.6,7.8,4.6,13v29.4H925.9L925.9,437.2z"/>
		<rect x="945.9" y="369.4" class="st0" width="9.8" height="9.8"/>
		<rect x="946.2" y="391.3" class="st0" width="9.2" height="46"/>
		<path class="st0" d="M992.7,437.2V433c-3.4,3.4-6.5,4.7-12.2,4.7c-5.7,0-9.5-1.4-12.3-4.2c-2.4-2.4-3.6-6-3.6-9.9
			c0-7.7,5.3-13.2,15.9-13.2h12v-3.3c0-5.8-2.9-8.6-10.1-8.6c-5.1,0-7.5,1.2-10.1,4.4l-6.1-5.7c4.4-5.1,8.9-6.6,16.5-6.6
			c12.6,0,19,5.4,19,15.8v30.7L992.7,437.2L992.7,437.2z M992.5,416.9h-10.8c-5.4,0-8.3,2.4-8.3,6.6s2.6,6.5,8.4,6.5
			c3.5,0,6.2-0.3,8.6-2.6c1.4-1.4,2-3.5,2-6.8L992.5,416.9L992.5,416.9z"/>
	</g>
	<polygon class="st1" points="641.7,364.1 599.8,294.3 564.6,289.8 564.5,289.8 564.1,360.6 	"/>
	<polygon class="st2" points="564.1,360.6 563.7,436.6 603.6,433.7 641.8,364.5 641.7,364.1 	"/>
	<polygon class="st2" points="564.1,360.6 564.5,289.8 527.6,294.3 485,364 	"/>
	<polygon class="st3" points="485,364 484.8,364.5 523.9,433.7 563.6,436.6 563.7,436.6 564.1,360.6 	"/>
	<g>
		<polygon class="st0" points="516,295.7 475.2,365.1 513.2,433 533,434.4 494.1,363.6 536.9,293.1 		"/>
		<polygon class="st0" points="612,296.3 590.8,293.1 632.3,363.7 595,434.5 614.8,433 650.9,363.8 		"/>
	</g>
</g>
</svg>
