<?xml version="1.0" encoding="iso-8859-1"?>
<!-- Generator: Adobe Illustrator 17.1.0, SVG Export Plug-In . SVG Version: 6.00 Build 0)  -->
<!DOCTYPE svg PUBLIC "-//W3C//DTD SVG 1.1//EN" "http://www.w3.org/Graphics/SVG/1.1/DTD/svg11.dtd">
<svg version="1.1" id="Capa_1" xmlns="http://www.w3.org/2000/svg" xmlns:xlink="http://www.w3.org/1999/xlink" x="0px" y="0px"
	 viewBox="0 0 512 512" style="enable-background:new 0 0 512 512;" xml:space="preserve">
<g>
	<path d="M437.022,74.984C388.67,26.63,324.381,0,256,0C187.624,0,123.338,26.63,74.984,74.984S0,187.624,0,256
		c0,68.388,26.63,132.678,74.984,181.028C123.335,485.375,187.621,512,256,512c68.385,0,132.673-26.625,181.021-74.972
		C485.372,388.679,512,324.389,512,256C512,187.623,485.372,123.336,437.022,74.984z M425.708,425.714
		C380.381,471.039,320.111,496,256,496c-64.106,0-124.374-24.961-169.703-70.286C40.965,380.386,16,320.113,16,256
		c0-64.102,24.965-124.37,70.297-169.703C131.63,40.965,191.898,16,256,16c64.108,0,124.378,24.965,169.708,70.297
		C471.037,131.628,496,191.896,496,256C496,320.115,471.037,380.387,425.708,425.714z"/>
	<path d="M430.038,114.969c-2.783-3.432-7.821-3.957-11.253-1.172c-3.431,2.784-3.956,7.822-1.172,11.252
		C447.526,161.919,464,208.426,464,256c0,55.567-21.635,107.803-60.919,147.085C363.797,442.367,311.563,464,256,464
		c-51.26,0-100.505-18.807-138.663-52.956c-3.292-2.946-8.35-2.666-11.296,0.626c-2.946,3.292-2.666,8.35,0.626,11.296
		C147.763,459.745,200.797,480,256,480c59.837,0,116.089-23.297,158.394-65.601C456.701,372.095,480,315.84,480,256
		C480,204.767,462.256,154.681,430.038,114.969z"/>
	<path d="M48,256c0-114.691,93.309-208,208-208c51.26,0,100.504,18.808,138.662,52.959c3.293,2.948,8.351,2.666,11.296-0.625
		c2.947-3.292,2.667-8.35-0.625-11.296C364.237,52.256,311.203,32,256,32c-59.829,0-116.08,23.301-158.389,65.611
		C55.301,139.921,32,196.171,32,256c0,51.239,17.744,101.328,49.963,141.038c1.581,1.949,3.889,2.96,6.217,2.96
		c1.771,0,3.553-0.585,5.036-1.788c3.431-2.784,3.956-7.822,1.172-11.253C64.474,350.088,48,303.58,48,256z"/>
	<path d="M265.4,287.545c-4.27-7.012-10.195-30.727-13.187-42.699c-1.715-6.849-3.073-15.012-4.509-23.655
		c-4.254-25.59-8.654-52.05-24.506-63.039c-6.423-4.453-13.985-5.865-22.476-4.2c-34.466,6.761-77.059,57.238-78.855,59.384
		c-2.399,2.866-2.495,7.011-0.23,9.984l10.06,13.205c1.297,1.703,3.226,2.812,5.349,3.084c2.123,0.272,4.27-0.32,5.955-1.639
		c5.986-4.688,13.814-8.706,16.925-8.779c3.651,6.732,13.375,38.532,20.551,62.003c8.191,26.788,15.927,52.09,20.266,61.054
		c5.395,11.214,17.37,25.902,33.361,30.392c3.217,0.903,6.455,1.352,9.682,1.352c7.101,0,14.143-2.173,20.755-6.458
		c11.229-7.284,37.041-27.605,62.559-57.564c21.052-24.716,47.776-63.347,55.54-107.025c0-0.001,0-0.002,0-0.003
		c5.045-28.441-4.765-43.485-13.882-51.096c-13.605-11.357-34.356-13.453-55.513-5.608c-21.042,7.804-45.457,27.739-50.874,60.287
		c-0.512,3.077,0.812,6.172,3.39,7.927c2.58,1.756,5.943,1.852,8.618,0.246c8.38-5.028,15.566-5.952,19.222-2.475
		c4.077,3.878,4.891,14.003-1.437,25.845C278.359,273.84,269.323,284.327,265.4,287.545z M304.628,210.63
		c-5.724-5.446-13.472-7.446-22.108-6.01c7.768-17.334,22.879-28.409,36.287-33.381c15.476-5.74,30.686-4.633,39.695,2.889
		c8.417,7.026,11.315,19.48,8.383,36.017c-13.668,76.889-91.072,141.005-111.05,153.965c-5.806,3.763-11.499,4.785-17.408,3.127
		c-10.159-2.852-19.006-13.066-23.275-21.94c-3.809-7.87-11.722-33.751-19.375-58.78c-13.585-44.429-19.552-63.036-23.906-68.168
		c-3.18-3.765-7.218-5.188-11.511-5.188c-7.1,0-14.891,3.897-20.611,7.532l-1.42-1.864c4.312-4.787,11.613-12.573,20.32-20.566
		c17.9-16.433,33.514-26.326,45.153-28.609c5.522-1.082,8.511,0.422,10.28,1.648c10.294,7.136,14.477,32.296,17.838,52.514
		c1.492,8.97,2.9,17.443,4.771,24.914c4.063,16.258,7.44,28.875,10.717,37.605c2.217,5.906,6.83,18.195,17.179,18.195
		c4.235,0,15.485,0,41.683-48.917C315.471,238.396,314.811,220.318,304.628,210.63z"/>
</g>
<g>
</g>
<g>
</g>
<g>
</g>
<g>
</g>
<g>
</g>
<g>
</g>
<g>
</g>
<g>
</g>
<g>
</g>
<g>
</g>
<g>
</g>
<g>
</g>
<g>
</g>
<g>
</g>
<g>
</g>
</svg>
